<svg width="2820" height="2510" xmlns="http://www.w3.org/2000/svg">
  <path d="M57 2376 1415 0l1358 2376H57z" stroke="#ff0" fill="#ff0"/>
  <path d="M1394 2a246 246 0 0 0-190 110C1193 129 29 2145 23 2158c-10 21-17 46-21 71a251 251 0 0 0 75 212c37 37 84 59 139 67h2386a245 245 0 0 0 194-350c-6-13-1170-2029-1181-2046A245 245 0 0 0 1394 2zm43 140c23 6 46 21 59 39 6 8 1172 2027 1177 2038l6 17c3 9 3 12 3 27s0 18-3 27c-11 42-45 74-88 81l-1182 1-1181-1c-43-7-77-39-88-81-3-9-3-12-3-27s0-18 3-27l6-17c5-11 1171-2030 1177-2038 16-21 42-37 70-42 11-1 33 0 44 3z"/>
  <path d="M1298 567c-34 6-59 33-59 67a104081 104081 0 0 0 106 1131c6 20 22 37 43 44 7 3 9 3 21 3 13 0 15 0 22-3 21-7 37-24 43-44 2-7 7-61 54-565l52-566c0-31-20-56-51-65-6-2-14-2-116-2h-115zM1396 1976a113 113 0 0 0-97 134 113 113 0 0 0 149 84 113 113 0 0 0 72-127 114 114 0 0 0-124-91z"/>
</svg>
