<svg width="2820" height="2510" xmlns="http://www.w3.org/2000/svg">

 <g>
  <g id="svg_9">
   <path id="svg_8" d="m57.20269,2376.00016l1358.00002,-2376.00017l1358.00002,2376.00017l-2716.00005,0z" stroke="#ffff00" fill="#ffff00"/>
   <g id="svg_1" fill="#000000" transform="translate(0, 2508) scale(0.1, -0.1)">
    <path id="svg_2" d="m13944.87691,25060.91895c-393,-35 -665,-109 -978,-268c-377,-192 -698,-481 -929,-836c-108,-166 -11744,-20330 -11804,-20455c-101,-211 -177,-462 -216,-715c-24,-160 -24,-509 1,-675c83,-557 344,-1063 744,-1447c381,-364 850,-585 1402,-660c141,-19 23719,-19 23860,0c741,100 1350,476 1756,1083c195,293 335,659 390,1024c25,165 25,514 1,675c-39,253 -115,504 -216,715c-60,125 -11696,20289 -11804,20455c-392,602 -1036,1002 -1757,1090c-94,11 -379,20 -450,14zm423,-1398c236,-61 458,-208 596,-395c57,-77 11718,-20270 11769,-20380c18,-40 45,-117 60,-170c23,-85 26,-115 26,-266c0,-152 -3,-180 -27,-268c-115,-428 -456,-743 -878,-812c-84,-13 -1352,-15 -11819,-15c-10467,0 -11735,2 -11819,15c-422,69 -763,384 -878,812c-24,88 -27,116 -27,268c0,151 3,181 26,266c15,53 42,130 60,170c51,110 11712,20303 11769,20380c160,217 426,375 705,419c106,16 327,5 437,-24z"/>
    <path id="svg_3" d="m12979.87691,19406.91895c-344,-53 -587,-331 -586,-670c0,-47 232,-2591 516,-5655c466,-5042 517,-5578 539,-5650c64,-206 224,-372 428,-441c75,-26 96,-29 218,-29c122,0 143,3 218,29c204,69 364,235 428,441c22,72 73,608 539,5650c284,3064 516,5609 516,5657c0,309 -194,560 -507,655c-55,16 -139,17 -1159,19c-605,1 -1122,-2 -1150,-6z"/>
    <path id="svg_4" d="m13959.87691,5315.91895c-153,-21 -314,-75 -431,-145c-285,-171 -467,-425 -540,-756c-23,-104 -23,-327 0,-438c96,-452 434,-790 886,-886c182,-38 420,-20 603,47c370,134 640,447 723,839c23,111 23,334 0,438c-77,347 -285,624 -586,781c-192,100 -452,148 -655,120z"/>
   </g>
  </g>
 </g>
</svg>