<svg width="496" height="496" xmlns="http://www.w3.org/2000/svg">

 <g>
  <title>Layer 1</title>
  <rect id="svg_1" height="300" width="300" y="98" x="98" stroke="#000" fill="#fff"/>
  <g>
   <path d="m496,248c0,136.997 -111.043,248 -248,248s-248,-111.003 -248,-248c0,-136.917 111.043,-248 248,-248s248,111.083 248,248zm-248,50c-25.405,0 -46,20.595 -46,46s20.595,46 46,46s46,-20.595 46,-46s-20.595,-46 -46,-46zm-43.673,-165.346l7.418,136c0.347,6.364 5.609,11.346 11.982,11.346l48.546,0c6.373,0 11.635,-4.982 11.982,-11.346l7.418,-136c0.375,-6.874 -5.098,-12.654 -11.982,-12.654l-63.383,0c-6.884,0 -12.356,5.78 -11.981,12.654z"/>
  </g>
 </g>
</svg>