<svg width="832" height="832" xmlns="http://www.w3.org/2000/svg">

 <g>
  <title>Layer 1</title>
  <ellipse ry="400" rx="400" id="svg_1" cy="416" cx="416" stroke="#000" fill="#fff"/>
  <g transform="matrix(1.3333333,0,0,-1.3333333,0,831.99998)" id="g8">
   <g transform="scale(0.1)" id="g10">
    <path fill-rule="evenodd" fill="#000000" id="path12" d="m3120,6240l0,0c1716,0 3120,-1404 3120,-3120l0,0c0,-1716 -1404,-3120 -3120,-3120l0,0c-1716,0 -3120,1404 -3120,3120l0,0c0,1716 1404,3120 3120,3120"/>
    <path fill-rule="nonzero" fill="#ffffff" id="path14" d="m3467.71,3108.96l0,1406.56c0,24.57 -19.91,44.48 -44.47,44.48l-606.48,0c-24.56,0 -44.47,-19.91 -44.47,-44.48l0,-1406.56l-813.16,0c-24.56,0 -44.48,-19.92 -44.48,-44.48c0,-13.85 6.34,-26.23 16.27,-34.39l1158.5,-1098.33l30.58,32.13l-30.6,-32.27c17.82,-16.9 45.98,-16.15 62.88,1.67l0.52,0.57l1158.59,1098.43l0.08,-0.09c17.82,16.9 18.57,45.06 1.67,62.88c-8.74,9.23 -20.5,13.88 -32.28,13.88l0,0l-813.15,0"/>
    <path fill-rule="evenodd" fill="#ffffff" id="path16" d="m1786.66,1680l2666.68,0c42.96,0 77.83,34.86 77.83,77.83c0,42.98 -34.87,77.85 -77.83,77.85l-2666.68,0c-42.97,0 -77.83,-34.87 -77.83,-77.85c0,-42.97 34.86,-77.83 77.83,-77.83"/>
   </g>
  </g>
 </g>
</svg>