<svg width="150" height="150" xmlns="http://www.w3.org/2000/svg" version="1.0">
 <defs>
  <linearGradient y2="1" x2="1" y1="1" x1="0" id="svg_1">
   <stop offset="0" stop-opacity="0.996" stop-color="red"/>
   <stop offset="1" stop-opacity="0.996" stop-color="#faa"/>
  </linearGradient>
  <linearGradient y2="1" x2="1" y1="1" x1="0" id="svg_2">
   <stop offset="0" stop-color="#ff5656"/>
   <stop offset="1" stop-opacity="0.996" stop-color="#faa"/>
  </linearGradient>
 </defs>
 <g>
  <title>Layer 1</title>
  <rect id="svg_7" height="100" width="100" y="25" x="25" stroke="#ffffff" fill="#ffffff"/>
  <path stroke="url(#svg_2)" fill="url(#svg_1)" d="m12.5404,1.02925c-3.8,1.1 -9.9,7.4 -11.4,11.8c-1.4,4.4 -1.6,118.9 -0.1,124.1c0.5,2 2.4,5 4.2,6.7c6.7,6.5 4.8,6.3 69.5,6.3c35.5,0 60.2,-0.4 62.3,-1c2,-0.5 5,-2.4 6.7,-4.2c6.5,-6.7 6.3,-4.8 6.3,-69.5c0,-35.5 -0.4,-60.2 -1,-62.3c-0.5,-2 -2.4,-5 -4.2,-6.7c-6.7,-6.5 -4.7,-6.3 -70,-6.2c-32.6,0 -60.7,0.5 -62.3,1zm99.4,37c2.6,2.6 3.1,3.8 3.1,7.9s-0.5,5.3 -3.1,7.9l-3.1,3.1l-67.6,0l-3.1,-3.1c-2.6,-2.6 -3.1,-3.8 -3.1,-7.9s0.5,-5.3 3.1,-7.9l3.1,-3.1l67.6,0l3.1,3.1zm-29.3,29.3c2.8,2.8 3.4,4.2 3.4,7.6s-0.6,4.8 -3.4,7.6l-3.4,3.4l-38,0l-3.1,-3.1c-2.6,-2.6 -3.1,-3.8 -3.1,-7.9s0.5,-5.3 3.1,-7.9l3.1,-3.1l38,0l3.4,3.4zm29.3,28.7c2.6,2.6 3.1,3.8 3.1,7.9s-0.5,5.3 -3.1,7.9l-3.1,3.1l-67.6,0l-3.1,-3.1c-2.6,-2.6 -3.1,-3.8 -3.1,-7.9s0.5,-5.3 3.1,-7.9l3.1,-3.1l67.6,0l3.1,3.1z" id="svg_3"/>
 </g>
</svg>
