<svg xmlns="http://www.w3.org/2000/svg" width="150" height="150">
  <defs>
    <linearGradient id="b" x1="0" x2="1" y1="1" y2="1">
      <stop offset="0" stop-color="red" stop-opacity=".996"/>
      <stop offset="1" stop-color="#faa" stop-opacity=".996"/>
    </linearGradient>
    <linearGradient id="a" x1="0" x2="1" y1="1" y2="1">
      <stop offset="0" stop-color="#ff5656"/>
      <stop offset="1" stop-color="#faa" stop-opacity=".996"/>
    </linearGradient>
  </defs>
  <path fill="#fff" stroke="#fff" d="M25 25h100v100H25z"/>
  <path fill="url(#b)" stroke="url(#a)" d="M12.5404 1.02925c-3.8 1.1-9.9 7.4-11.4 11.8-1.4 4.4-1.6 118.9-.1 124.1.5 2 2.4 5 4.2 6.7 6.7 6.5 4.8 6.3 69.5 6.3 35.5 0 60.2-.4 62.3-1 2-.5 5-2.4 6.7-4.2 6.5-6.7 6.3-4.8 6.3-69.5 0-35.5-.4-60.2-1-62.3-.5-2-2.4-5-4.2-6.7-6.7-6.5-4.7-6.3-70-6.2-32.6 0-60.7.5-62.3 1zm99.4 37c2.6 2.6 3.1 3.8 3.1 7.9s-.5 5.3-3.1 7.9l-3.1 3.1h-67.6l-3.1-3.1c-2.6-2.6-3.1-3.8-3.1-7.9s.5-5.3 3.1-7.9l3.1-3.1h67.6l3.1 3.1zm-29.3 29.3c2.8 2.8 3.4 4.2 3.4 7.6s-.6 4.8-3.4 7.6l-3.4 3.4h-38l-3.1-3.1c-2.6-2.6-3.1-3.8-3.1-7.9s.5-5.3 3.1-7.9l3.1-3.1h38l3.4 3.4zm29.3 28.7c2.6 2.6 3.1 3.8 3.1 7.9s-.5 5.3-3.1 7.9l-3.1 3.1h-67.6l-3.1-3.1c-2.6-2.6-3.1-3.8-3.1-7.9s.5-5.3 3.1-7.9l3.1-3.1h67.6l3.1 3.1z"/>
</svg>
