<svg width="512" height="512" xmlns="http://www.w3.org/2000/svg">

 <g>
  <title>Layer 1</title>
  <ellipse ry="250" rx="250" id="svg_3" cy="256" cx="256" stroke="#000" fill="#fff"/>
  <g id="svg_1" fill="#000000" transform="translate(0.000000,512.000000) scale(0.100000,-0.100000)">
   <path id="svg_2" d="m2240,5105c-389,-48 -766,-188 -1091,-404c-504,-335 -871,-825 -1043,-1395c-41,-132 -81,-333 -96,-468c-13,-125 -13,-431 0,-556c108,-1014 825,-1880 1804,-2176c132,-41 333,-81 468,-96c125,-13 431,-13 556,0c592,63 1141,332 1563,766c289,299 494,645 613,1038c74,243 106,468 106,746c0,209 -10,324 -46,505c-181,920 -867,1676 -1768,1949c-132,41 -333,81 -468,96c-131,14 -469,11 -598,-5zm369,-769c57,-30 61,-46 61,-267l0,-201l-34,-34c-28,-28 -42,-34 -76,-34c-34,0 -48,6 -76,34l-34,34l0,201c0,219 4,236 59,266c34,18 65,19 100,1zm-1006,-383c25,-19 213,-239 239,-281c23,-36 23,-77 -2,-117c-25,-41 -68,-59 -115,-51c-30,6 -52,27 -143,133c-139,163 -152,182 -154,225c-3,92 103,147 175,91zm2045,1c33,-22 51,-69 42,-111c-8,-35 -28,-62 -172,-230c-72,-84 -94,-103 -123,-109c-89,-16 -165,81 -123,159c15,29 217,268 243,287c44,33 86,35 133,4zm-903,-480c261,-50 508,-242 616,-480c50,-109 70,-205 70,-329c1,-255 -47,-387 -243,-684c-50,-75 -110,-176 -134,-226c-40,-83 -74,-208 -74,-269c0,-38 -19,-71 -51,-90c-34,-20 -37,-32 -9,-41c23,-7 50,-53 50,-85c0,-28 -17,-61 -43,-81c-21,-17 -21,-17 9,-42c24,-21 29,-33 29,-71c0,-67 -34,-98 -115,-104c-43,-3 -60,-8 -60,-19c0,-23 -36,-86 -67,-115c-40,-38 -111,-68 -163,-68c-52,0 -123,30 -163,68c-31,29 -67,92 -67,115c0,11 -17,16 -60,19c-81,6 -115,37 -115,104c0,38 5,50 29,70l28,25l-26,24c-29,27 -41,64 -32,100c7,27 35,60 57,67c9,3 -1,18 -29,45c-34,32 -42,47 -42,76c0,130 -64,281 -219,517c-186,281 -233,415 -232,665c0,279 143,534 386,687c203,129 422,169 670,122zm-1541,-474c146,-26 162,-32 190,-60c43,-42 44,-105 2,-149c-15,-16 -39,-32 -53,-35c-36,-10 -372,52 -409,75c-52,31 -67,85 -39,139c36,70 76,74 309,30zm2984,14c26,-18 52,-65 52,-93c0,-34 -22,-71 -54,-90c-37,-23 -373,-85 -409,-75c-14,3 -38,19 -53,35c-42,44 -41,107 2,149c28,28 45,34 180,60c175,33 250,37 282,14z"/>
  </g>
 </g>
</svg>