<svg width="525" height="510" xmlns="http://www.w3.org/2000/svg">
  <circle cy="255" cx="263" stroke="#fff" fill="#fff" r="200"/>
  <g fill-rule="evenodd">
    <path d="M243 6a251 251 0 1 0 49 499A251 251 0 0 0 243 6m-68 100c-3 1-4 5-3 8 2 3 21 21 23 21s6-4 6-6c0-3-19-23-22-23h-4m169 10c-12 11-13 13-9 17 4 3 6 2 18-9 11-11 11-13 8-17-4-3-6-3-17 9m-96 10c-30 8-51 29-61 60a111 111 0 0 0 15 84c10 16 13 21 16 31l3 10 1 34v35h90v-32c0-44 1-48 17-73 15-24 20-40 20-64 0-15 0-17-2-25-9-28-28-49-55-58-11-4-33-5-45-2m7 11c-18 4-31 13-41 26-23 31-22 67 4 108 10 16 16 30 18 46v6h15v-3l-2-37-2-34-7-16c-8-16-8-17-5-20 1-2 1-2 33-2 41 0 39-2 28 22l-7 15-2 35-2 37v3h15v-6c2-16 8-31 19-48 25-39 26-79 2-107a70 70 0 0 0-67-25m-121 60c-3 2-2 6 0 8 3 3 30 3 32 0 3-2 2-6 0-8-3-3-30-3-32 0m238 0-2 4c0 5 2 6 18 6 13 0 15 0 16-2 3-2 2-6 0-8-2-3-30-3-32 0m-121 27 4 11 5 10 2 38 3 39 4 1h4v-6l3-39 2-33 5-10 4-11-18-1-18 1m-79 66c-12 11-12 13-9 17 4 3 6 3 17-9 12-11 13-14 9-17-4-4-6-3-17 9m177-9c-3 4-2 6 9 17 11 12 13 12 17 9 3-4 3-6-9-17-11-12-14-13-17-9m-112 60v4h17c19 0 21 1 21 7s-2 6-21 6h-17v5h64v-27h-64v5m-12 50c1 4 5 10 9 12s56 3 66 1c6-1 11-6 13-12l1-4h-90l1 3" stroke="#fcfcfb" fill="#fcfcfb"/>
    <path d="M243 6A251 251 0 0 0 19 290 250 250 0 1 0 243 6m-70 101c-4 5-3 7 8 18s14 12 18 8 3-7-8-18-13-12-18-8m170 8c-11 11-12 14-8 18s7 3 18-8 11-13 8-17c-4-5-6-4-18 7m-90 10c-28 5-52 25-63 51-12 30-6 68 15 99 15 23 17 32 17 74v31h90v-34c1-42 2-49 17-70 27-41 28-88 2-121a83 83 0 0 0-78-30m6 12c-22 3-41 16-52 35-16 28-13 64 9 97 10 15 17 32 19 47v7h15v-3l-2-38-3-35-6-14c-11-23-13-22 28-22s39-1 28 22l-6 13-3 35-2 39v3h15v-7c2-15 9-32 19-47 27-40 26-84-3-113a69 69 0 0 0-56-19m-126 58c-3 2-4 9-1 11 2 2 31 2 33-1 2-2 2-7 0-9-3-2-28-3-32-1m238 0c-4 2-5 6-3 9l2 3h15c17 0 19-1 19-6 0-4-1-5-6-6h-27m-122 29 4 10 5 10 2 37 3 39c0 3 0 3 4 3 3 0 4 0 4-2l3-40 2-37 5-10 4-10-18-1-18 1m-80 65c-11 11-12 14-8 18s7 3 18-8 12-15 8-18c-4-4-7-3-18 8m178-8c-4 4-3 7 8 18 12 11 14 12 18 8s3-7-8-18-15-12-18-8m-112 60v4h17c19 0 21 1 21 7s-2 6-21 6h-17v5h64v-27h-64v5m-13 48c0 3 3 9 6 11 5 5 7 5 38 5s35 0 40-5c3-2 7-10 6-11a1304 1304 0 0 0-90 0" stroke="#f7e081" fill="#f7e081"/>
    <path d="M247 6a250 250 0 1 0 41 498A250 250 0 0 0 247 6m-74 101c-4 4-3 7 8 18s15 12 18 8c4-4 3-7-8-18s-14-12-18-8m170 8c-11 11-12 14-8 18 3 4 7 3 18-8s12-14 8-18-7-3-18 8m-92 9a89 89 0 0 0-67 95c2 19 8 36 18 52 18 28 19 33 20 76v33h90v-30c0-43 2-51 17-74 36-55 25-119-27-144-15-8-35-11-51-8m8 13c-35 4-62 36-62 73 0 20 6 39 21 61 10 16 15 30 17 45v7h8l7-1-2-38-3-37-6-14c-11-24-12-23 28-23s40-1 28 23l-6 14-3 37-2 38 7 1h8v-7c2-14 7-28 15-41 18-29 22-41 22-64 0-16-1-22-7-35a69 69 0 0 0-70-39m-128 59-2 5c0 6 4 7 19 7s19-1 19-7l-2-5c-4-3-30-3-34 0m238 0-2 5c0 6 4 7 19 7 16 0 18-1 18-7s-2-7-18-7c-14 0-14 0-17 2m-115 38 4 10 3 39 3 40h3c4 0 3 3 6-41 3-39 3-39 6-45l4-9 2-4h-36l5 10m-84 55c-12 11-13 15-9 18 4 4 7 3 18-8 11-12 13-15 8-19-4-3-6-2-17 9m179-10c-7 4-6 8 6 20 11 11 15 12 18 8 4-4 3-7-8-18-11-10-13-12-16-10m-114 62v4h35l2 3 2 3-2 4-2 3h-18c-16 0-17 0-17 2s1 2 32 2h32v-26h-64v5m-13 49c0 3 4 9 8 12l3 2 33 1c30 0 33 0 36-2 5-2 9-8 10-12v-4h-90v3" stroke="#f4c314" fill="#f4c314"/>
    <path d="M363 112c0 4-21 25-24 24l27 29c22 21 30 29 32 29 3 0 7 4 7 7l-2 5c-4 3-31 3-34 0s-3-8 0-10l3-3-21-19-20-20 5 8c22 32 19 74-7 114-15 23-16 29-17 72v33h-88l3 3 2 3h83v3c0 4-4 10-9 13l-4 2h-33l-34-1 46 47 46 46h5a250 250 0 0 0 187-227l1-8-77-77c-70-69-77-76-77-73m-162 14c2 5-4 12-8 9l6 7 7 8 5-5 5-5-8-8-7-6m49 13c-27 7-48 31-52 61-3 21 4 46 18 69 11 16 17 31 19 46v8h15v-4l-3-38-2-33-7-14c-11-25-12-24 29-24s40-1 29 24l-7 14-2 33-3 38v4h15v-7c2-15 7-30 18-47 23-36 26-71 8-100a68 68 0 0 0-75-30m-83 61c1 7-2 8-18 8h-14l37 37c28 29 35 35 32 30-11-16-18-37-20-56-1-6-1-6-9-14s-9-8-8-5m83 25 4 9c5 10 5 8 7 47 3 44 2 42 6 42h3l3-40 3-39 4-10 5-10h-18l-17 1m96 55c-4 5-3 6 9 18s14 13 18 9 3-6-9-18-13-13-18-9m-156 4c0 3 0 4-11 14-7 7-11 11-13 11s4 6 27 29l29 29v-16l-1-27v-12l-16-16c-14-14-16-15-15-12m46 56v4h17c19 1 21 1 21 8 0 6-2 6-21 7-14 0-17 0-17 2l31 1h31v-26h-62v4" stroke="#f49c14" fill="#f49c14"/>
  </g>
</svg>
