<svg width="500" height="500" xmlns="http://www.w3.org/2000/svg">

 <g>
  <g id="svg_13">
   <rect id="svg_11" height="17" width="39.5" y="24.12526" x="297.54836" stroke="#ffffff" fill="#fff"/>
   <rect id="svg_10" height="26.5" width="84" y="18.12526" x="221.29836" stroke="#ffffff" fill="#fff"/>
   <rect transform="rotate(-20, 179.968, 47.2721)" id="svg_9" height="40.12522" width="110.00597" y="27.20951" x="124.9651" stroke="#ffffff" fill="#fff"/>
   <rect transform="rotate(40, 96.9667, 106.8)" id="svg_8" height="122" width="40.8866" y="45.79961" x="76.52342" stroke="#ffffff" fill="#fff"/>
   <rect transform="rotate(15, 49.7692, 200.143)" id="svg_7" height="117.5" width="47.40013" y="141.39261" x="26.06912" stroke="#ffffff" fill="#fff"/>
   <rect transform="rotate(-15, 49.8623, 306.21)" id="svg_5" height="122.61812" width="39.37011" y="244.9013" x="30.17729" stroke="#ffffff" fill="#fff"/>
   <rect transform="rotate(-70, 64.6755, 415.252)" id="svg_4" height="22.90909" width="122.24216" y="403.79746" x="3.55439" stroke="#ffffff" fill="#fff"/>
   <rect transform="rotate(-70, 52.5145, 396.335)" id="svg_3" height="22.69125" width="179" y="384.98987" x="-36.98555" stroke="#ffffff" fill="#fff"/>
   <rect transform="rotate(25, 179.5, 458.375)" id="svg_2" height="15" width="75" y="450.87526" x="142.00002" stroke="#ffffff" fill="#fff"/>
   <rect id="svg_1" height="250" width="250" y="125.00002" x="125.00002" stroke="#000" fill="#fff"/>
   <g transform="matrix(1.33333, 0, 0, -1.33333, 0.000349181, 487.125)" id="g8">
    <g transform="translate(0.299389) scale(0.1)" id="g10">
     <path fill-rule="evenodd" fill="#fdb301" id="path12" d="m858.766,2937.33783c-305.852,-305.85 -495.028,-728.39 -495.028,-1195.11c0,-164.88 23.407,-323.79 67.039,-473.6c44.75,-153.63 110.715,-298.2 194.5,-430.34c12.153,-15.75 15.813,-37.371 7.719,-57.097l-0.187,0.039l-301.793,-735.5354l783.264,260.8394c16.75,7.364 36.72,6.637 53.47,-3.691l-0.1,-0.195c130.75,-80.664 273.52,-144.075 425.11,-186.977c146.33,-41.414 300.99,-63.582 461.11,-63.582c466.72,0 889.27,189.18 1195.11,495.031c305.85,305.848 495.03,728.388 495.03,1195.108c0,466.72 -189.18,889.26 -495.03,1195.11c-305.84,305.84 -728.39,495.02 -1195.11,495.02c-466.72,0 -889.26,-189.18 -1195.104,-495.02zm1084.184,-1649.22c-0.72,25.31 -1.08,44.48 -1.08,57.14c0,74.86 10.49,139.6 31.83,193.85c15.54,40.86 40.5,82.09 75.22,124.05c25.31,30.38 71.25,74.5 137.07,132.72c66.18,58.59 108.86,104.89 128.75,139.61c19.89,34.36 29.65,72.33 29.65,113.19c0,74.15 -28.93,139.24 -86.8,195.66c-57.86,56.06 -129.11,84.27 -213.02,84.27c-81.36,0 -149,-25.68 -203.24,-76.31c-54.62,-50.99 -90.06,-130.56 -107.05,-238.69l-196.02,23.5c17.72,144.66 70.16,255.7 157.32,332.73c87.16,77.03 202.53,115.36 345.74,115.36c151.9,0 273.06,-41.22 363.47,-124.04c90.42,-82.46 135.62,-182.28 135.62,-299.81c0,-67.64 -15.91,-130.2 -47.74,-187.34c-31.83,-57.15 -93.66,-126.95 -186.25,-208.68c-62.21,-55.34 -102.71,-95.84 -121.87,-121.88c-19.17,-26.41 -33.28,-56.42 -42.33,-90.06c-9.39,-33.99 -14.46,-88.96 -15.91,-165.27l-183.36,0zm-11.57,-382.638l0,217.368l217,0l0,-217.368l-217,0"/>
     <path fill-rule="evenodd" fill="#1c0100" id="path14" d="m1881.07,3605.15783c498.52,0 949.86,-202.07 1276.56,-528.77c326.7,-326.7 528.78,-778.04 528.78,-1276.56c0,-498.53 -202.08,-949.868 -528.78,-1276.555c-326.7,-326.711 -778.04,-528.7816 -1276.56,-528.7816c-170.37,0 -335.47,23.7422 -492.16,68.0856c-152.82,43.243 -297.56,106.243 -431.305,186.036l-881.8745,-293.68016l0.0781,-0.24609c-30.1797,-10.04688 -62.7969,6.26953 -72.84376,36.45705c-5.0664,15.2031 -3.43359,31.0156 3.28516,44.2578l336.371,819.8124c-83.41,135.554 -149.422,282.954 -194.891,439.064c-46.863,160.87 -71.9917,330.54 -71.9917,505.55c0,498.52 202.0747,949.86 528.7737,1276.56c326.699,326.7 778.038,528.77 1276.558,528.77zm1195.12,-610.22c-305.85,305.85 -728.39,495.02 -1195.12,495.02c-466.72,0 -889.257,-189.17 -1195.109,-495.02c-305.848,-305.85 -495.023,-728.39 -495.023,-1195.11c0,-164.89 23.402,-323.79 67.039,-473.6c44.746,-153.63 110.718,-298.2 194.5,-430.338c12.156,-15.754 15.812,-37.375 7.718,-57.102l-0.187,0.039l-301.789,-735.539l783.261,260.84c16.747,7.367 36.723,6.653 53.469,-3.68l-0.097,-0.203c130.748,-80.668 273.518,-144.074 425.108,-186.972c146.33,-41.407 300.99,-63.586 461.11,-63.586c466.73,0 889.27,189.179 1195.12,495.031c305.85,305.848 495.02,728.39 495.02,1195.11c0,466.72 -189.17,889.26 -495.02,1195.11"/>
     <path fill-rule="evenodd" fill="#1c0100" id="path16" d="m1770.16,1345.70783c-0.73,25.33 -1.09,44.49 -1.09,57.15c0,74.87 10.48,139.6 31.82,193.85c15.56,40.87 40.51,82.1 75.23,124.04c25.31,30.38 71.25,74.51 137.07,132.73c66.18,58.59 108.86,104.88 128.75,139.61c19.89,34.35 29.66,72.33 29.66,113.2c0,74.14 -28.94,139.23 -86.8,195.66c-57.87,56.05 -129.11,84.26 -213.02,84.26c-81.37,0 -149.01,-25.68 -203.25,-76.31c-54.62,-51 -90.05,-130.56 -107.05,-238.7l-196.02,23.51c17.72,144.67 70.16,255.69 157.32,332.73c87.16,77.03 202.53,115.37 345.74,115.37c151.91,0 273.06,-41.23 363.47,-124.05c90.42,-82.46 135.62,-182.28 135.62,-299.82c0,-67.63 -15.91,-130.19 -47.73,-187.34c-31.83,-57.14 -93.67,-126.94 -186.26,-208.67c-62.21,-55.33 -102.71,-95.84 -121.88,-121.89c-19.17,-26.39 -33.27,-56.41 -42.31,-90.04c-9.41,-34 -14.47,-88.98 -15.91,-165.29l-183.36,0zm-11.58,-382.62l0,217.35l216.99,0l0,-217.35l-216.99,0"/>
    </g>
   </g>
  </g>
 </g>
</svg>