<svg width="500" height="500" xmlns="http://www.w3.org/2000/svg">
  <path stroke="#fff" fill="#fff" d="M298 24h39v17h-39z"/>
  <path stroke="#fff" fill="#fff" d="M221 18h84v27h-84z"/>
  <path stroke="#fff" fill="#fff" d="M121 47 225 9l13 38-103 38z"/>
  <path stroke="#fff" fill="#fff" d="m121 47 30 26-78 94-31-26z"/>
  <path stroke="#fff" fill="#fff" d="m42 137 46 12-30 114-46-12z"/>
  <path stroke="#fff" fill="#fff" d="m15 252 38-10 32 119-38 10z"/>
  <path stroke="#fff" fill="#fff" d="m33 468 42-114 22 8-42 114z"/>
  <path stroke="#fff" fill="#fff" d="m11 477 61-169 22 8-61 168zM149 436l68 32-7 13-68-32z"/>
  <path stroke="#000" fill="#fff" d="M125 125h250v250H125z"/>
  <g fill-rule="evenodd">
    <path fill="#fdb301" d="M115 95a225 225 0 0 0-31 280c1 2 2 5 1 8l-40 98 104-35c2-1 5-1 7 1a224 224 0 0 0 278-33A225 225 0 0 0 274 29c-62 0-118 26-159 66zm144 220v-7c0-10 2-19 5-26 2-6 5-11 10-17 3-4 9-10 18-17 9-8 14-14 17-19s4-10 4-15c0-10-4-19-12-26-7-8-17-11-28-11s-20 3-27 10-12 17-14 32l-26-3c2-20 9-35 20-45 12-10 27-15 47-15s36 5 48 16a52 52 0 0 1 12 65c-4 8-13 17-25 28l-16 16-6 12-2 22h-25zm-1 51v-29h29v29h-29"/>
    <path fill="#1c0100" d="M251 6a240 240 0 0 1 170 411 240 240 0 0 1-293 37L10 493h1a8 8 0 0 1-10-11l45-109A239 239 0 0 1 81 77C125 33 185 6 251 6zm160 82A225 225 0 0 0 26 247a225 225 0 0 0 35 121c1 2 2 5 1 7l-41 98 105-34h7a224 224 0 0 0 278-33 225 225 0 0 0 0-318"/>
    <path fill="#1c0100" d="M236 308v-8c0-10 2-19 5-26 2-5 5-11 10-16l18-18c9-8 14-14 17-19 3-4 4-9 4-15 0-10-4-18-12-26-7-7-17-11-28-11s-20 3-27 10-12 18-14 32l-27-3c3-19 10-34 21-45 12-10 27-15 47-15s36 6 48 17a52 52 0 0 1 12 65c-5 7-13 17-25 27-8 8-14 13-16 17-3 3-5 7-6 12l-2 22h-25zm-1 51v-29h29v29h-29"/>
  </g>
</svg>
