<svg width="501" height="488" xmlns="http://www.w3.org/2000/svg">
  <path d="M298 18h39v17h-39V18z" fill="#fff" stroke="#fff"/>
  <path d="M221 12h84v27h-84V12z" fill="#fff" stroke="#fff"/>
  <path d="M121 41 225 3l13 38-103 38-14-38z" fill="#fff" stroke="#fff"/>
  <path d="m121 41 30 26-78 94-31-26 79-94z" fill="#fff" stroke="#fff"/>
  <path d="m42 131 46 12-30 114-46-12 30-114z" fill="#fff" stroke="#fff"/>
  <path d="m15 246 38-10 32 119-38 10-32-119z" fill="#fff" stroke="#fff"/>
  <path d="m33 462 42-114 22 8-42 114-22-8z" fill="#fff" stroke="#fff"/>
  <path d="m11 471 61-169 22 8-61 168-22-7zm138-41 68 32-7 13-68-32 7-13z" fill="#fff" stroke="#fff"/>
  <path d="M125 119h250v250H125V119z" fill="#fff" stroke="#000"/>
  <g fill-rule="evenodd">
    <path d="M115 89a225 225 0 0 0-31 280c1 2 2 5 1 8l-40 98 104-35c2-1 5-1 7 1a224 224 0 0 0 278-33A225 225 0 0 0 274 23c-62 0-118 26-159 66zm144 220v-7a67 67 0 0 1 15-43c3-4 9-10 18-17 9-8 14-14 17-19s4-10 4-15c0-10-4-19-12-26-7-8-17-11-28-11s-20 3-27 10-12 17-14 32l-26-3c2-20 9-35 20-45 12-10 27-15 47-15s36 5 48 16a52 52 0 0 1 12 65c-4 8-13 17-25 28l-16 16-6 12-2 22h-25zm-1 51v-29h29v29h-29" fill="#fdb301"/>
    <path d="M251 0a240 240 0 0 1 170 411 240 240 0 0 1-293 37L10 487h1a8 8 0 0 1-10-11l45-109A239 239 0 0 1 81 71C125 27 185 0 251 0zm160 82A225 225 0 0 0 26 241a225 225 0 0 0 35 121c1 2 2 5 1 7l-41 98 105-34h7a224 224 0 0 0 278-33 225 225 0 0 0 0-318" fill="#1c0100"/>
    <path d="M236 302v-8c0-10 2-19 5-26 2-5 5-11 10-16l18-18c9-8 14-14 17-19 3-4 4-9 4-15 0-10-4-18-12-26-7-7-17-11-28-11s-20 3-27 10-12 18-14 32l-27-3c3-19 10-34 21-45 12-10 27-15 47-15s36 6 48 17a52 52 0 0 1 12 65c-5 7-13 17-25 27-8 8-14 13-16 17-3 3-5 7-6 12l-2 22h-25zm-1 51v-29h29v29h-29" fill="#1c0100"/>
  </g>
</svg>
